<svg width="191" height="46" viewBox="0 0 191 46" fill="none" xmlns="http://www.w3.org/2000/svg">
<g clip-path="url(#clip0_677_69)">
<path d="M59.6668 20.294C57.2685 20.294 63.2353 32.6703 67.8565 30.0763C72.4779 27.482 78.6474 16.757 88.2411 9.13664C97.8347 1.51627 86.8371 -0.321287 78.6474 0.381306C70.4575 1.0839 63.0597 23.3746 59.6668 20.294Z" fill="#142850"/>
<path d="M72.2748 26.0857C72.9768 25.0048 69.7009 40.3536 61.9651 35.1954C54.2293 30.0371 46.4772 21.2757 44.4883 19.276C48.2907 15.763 49.7531 14.2498 52.6196 11.7637C52.87 11.9999 53.205 12.3323 53.6101 12.7398C53.6114 12.7387 53.6126 12.7376 53.6139 12.7365C54.4549 13.5296 56.1615 15.3211 58.2309 17.3593C63.2983 22.2831 70.0162 28.1365 72.2748 26.0857Z" fill="#142850"/>
<path d="M53.2907 12.5114C53.2907 12.5114 46.3294 18.6185 46.505 21.4829L44.5745 19.4292L48.6693 15.7811L52.8811 12.1331L53.2907 12.5114Z" fill="#120136"/>
<path d="M51.2996 10.1036L19.1714 38.3949C18.5236 38.9653 18.4928 39.9068 19.1025 40.4978C19.7121 41.0888 20.7315 41.1055 21.3793 40.5351L53.5075 12.2437C54.1552 11.6733 54.1861 10.7318 53.5764 10.1409C52.9667 9.54988 51.9474 9.5332 51.2996 10.1036Z" fill="#40BAD5"/>
<path d="M37.4246 26.1856C38.1265 25.1048 34.4997 40.8319 27.129 35.2111C19.7582 29.5904 13.3235 16.7277 3.72982 9.10735C-5.86381 1.48697 5.13377 -0.350584 13.3235 0.35201C21.5132 1.0546 34.0317 29.2662 37.4246 26.1856Z" fill="#142850"/>
<path d="M39.5839 10.4442L13.6914 33.2445C13.0437 33.8149 13.0128 34.7564 13.6225 35.3474C14.2322 35.9384 15.2515 35.9551 15.8993 35.3847L41.7918 12.5844C42.4395 12.014 42.4704 11.0725 41.8607 10.4815C41.251 9.89052 40.2317 9.87384 39.5839 10.4442Z" fill="#40BAD5"/>
<path d="M45.5129 10.2113L16.44 35.8122C15.7922 36.3826 15.7613 37.3241 16.371 37.915C16.9807 38.506 18.0001 38.5227 18.6478 37.9523L47.7207 12.3514C48.3685 11.781 48.3993 10.8395 47.7897 10.2485C47.18 9.65755 46.1606 9.64087 45.5129 10.2113Z" fill="#40BAD5"/>
<path d="M10.0528 45.7795C9.24701 46.0284 8.46943 45.3928 8.63894 44.6234L10.1137 37.9311C10.2864 37.147 11.3097 36.8136 11.9462 37.334L17.4822 41.86C18.1186 42.3804 17.8849 43.3594 17.0635 43.6132L10.0528 45.7795Z" fill="#ACB0B4"/>
<path d="M61.2463 20.2939C63.7321 22.5404 69.5703 26.61 72.3023 26.0768C71.5419 27.1578 67.6811 27.1687 61.2463 20.2939Z" fill="#120136"/>
<path d="M26.674 34.6701C25.2117 32.4542 32.8164 25.8067 34.2204 24.2934C35.6243 22.78 24.5681 32.7785 24.5681 32.7785C24.5681 32.7785 25.6979 34.1138 26.674 34.6701Z" fill="#120136"/>
<path d="M81.584 35V22.256H84.74V26.492L84.008 26.084C84.088 25.532 84.236 25.012 84.452 24.524C84.668 24.028 84.956 23.596 85.316 23.228C85.676 22.852 86.112 22.56 86.624 22.352C87.136 22.144 87.72 22.04 88.376 22.04C88.896 22.04 89.304 22.08 89.6 22.16C89.904 22.232 90.092 22.292 90.164 22.34L89.588 25.232C89.508 25.176 89.344 25.108 89.096 25.028C88.856 24.94 88.532 24.896 88.124 24.896C87.476 24.896 86.932 25.008 86.492 25.232C86.06 25.448 85.716 25.744 85.46 26.12C85.204 26.488 85.02 26.896 84.908 27.344C84.796 27.784 84.74 28.224 84.74 28.664V35H81.584ZM92.0943 35V22.256H95.2143V35H92.0943ZM93.6663 19.904C93.1543 19.904 92.7063 19.768 92.3223 19.496C91.9463 19.216 91.7583 18.828 91.7583 18.332C91.7583 17.844 91.9463 17.464 92.3223 17.192C92.7063 16.92 93.1543 16.784 93.6663 16.784C94.1703 16.784 94.6103 16.92 94.9863 17.192C95.3623 17.464 95.5503 17.844 95.5503 18.332C95.5503 18.828 95.3623 19.216 94.9863 19.496C94.6103 19.768 94.1703 19.904 93.6663 19.904ZM104.198 35.24C103.742 35.24 103.278 35.196 102.806 35.108C102.334 35.02 101.902 34.856 101.51 34.616C101.118 34.376 100.802 34.024 100.562 33.56C100.322 33.096 100.202 32.484 100.202 31.724C100.202 31.548 100.202 31.372 100.202 31.196C100.202 31.012 100.202 30.824 100.202 30.632V24.776H97.1898V22.256H98.4138C98.8298 22.256 99.1578 22.24 99.3978 22.208C99.6378 22.168 99.8138 22.08 99.9258 21.944C100.038 21.808 100.11 21.596 100.142 21.308C100.182 21.012 100.202 20.604 100.202 20.084V18.056H103.37V22.256H107.162V24.776H103.37V29.888C103.37 30.04 103.37 30.192 103.37 30.344C103.37 30.488 103.37 30.628 103.37 30.764C103.37 31.356 103.442 31.832 103.586 32.192C103.73 32.552 104.07 32.732 104.606 32.732C104.862 32.732 105.102 32.708 105.326 32.66C105.558 32.612 105.73 32.564 105.842 32.516V34.988C105.69 35.044 105.47 35.1 105.182 35.156C104.894 35.212 104.566 35.24 104.198 35.24ZM110.369 29.648V27.404H119.285L118.925 28.004C118.925 27.956 118.925 27.904 118.925 27.848C118.925 27.784 118.925 27.732 118.925 27.692C118.925 27.14 118.801 26.624 118.553 26.144C118.305 25.656 117.929 25.264 117.425 24.968C116.921 24.664 116.281 24.512 115.505 24.512C114.737 24.512 114.069 24.676 113.501 25.004C112.941 25.324 112.505 25.788 112.193 26.396C111.889 27.004 111.737 27.732 111.737 28.58C111.737 29.452 111.885 30.204 112.181 30.836C112.477 31.46 112.909 31.94 113.477 32.276C114.053 32.604 114.753 32.768 115.577 32.768C116.137 32.768 116.621 32.716 117.029 32.612C117.437 32.508 117.769 32.368 118.025 32.192C118.289 32.008 118.485 31.812 118.613 31.604C118.749 31.396 118.829 31.188 118.853 30.98H121.997C121.949 31.516 121.769 32.04 121.457 32.552C121.153 33.056 120.725 33.516 120.173 33.932C119.621 34.34 118.949 34.668 118.157 34.916C117.373 35.156 116.477 35.276 115.469 35.276C114.101 35.276 112.905 34.996 111.881 34.436C110.857 33.876 110.057 33.096 109.481 32.096C108.913 31.096 108.629 29.952 108.629 28.664C108.629 27.344 108.917 26.188 109.493 25.196C110.077 24.204 110.885 23.432 111.917 22.88C112.949 22.32 114.133 22.04 115.469 22.04C116.845 22.04 118.033 22.32 119.033 22.88C120.041 23.44 120.817 24.22 121.361 25.22C121.905 26.212 122.177 27.368 122.177 28.688C122.177 28.856 122.173 29.036 122.165 29.228C122.157 29.42 122.145 29.56 122.129 29.648H110.369ZM131.955 35.264C130.963 35.264 130.043 35.008 129.195 34.496C128.355 33.976 127.675 33.268 127.155 32.372C126.643 31.476 126.387 30.468 126.387 29.348C126.387 29.316 126.387 29.288 126.387 29.264C126.387 29.232 126.387 29.204 126.387 29.18L127.947 29.144C127.947 29.16 127.947 29.18 127.947 29.204C127.947 29.228 127.947 29.248 127.947 29.264C127.947 29.888 128.103 30.444 128.415 30.932C128.727 31.412 129.131 31.792 129.627 32.072C130.131 32.344 130.667 32.48 131.235 32.48C132.155 32.48 132.939 32.164 133.587 31.532C134.235 30.9 134.559 29.92 134.559 28.592C134.559 27.256 134.235 26.28 133.587 25.664C132.947 25.04 132.163 24.728 131.235 24.728C130.675 24.728 130.143 24.864 129.639 25.136C129.143 25.4 128.735 25.768 128.415 26.24C128.103 26.712 127.947 27.264 127.947 27.896L126.387 27.824C126.387 26.696 126.643 25.696 127.155 24.824C127.675 23.952 128.355 23.272 129.195 22.784C130.043 22.288 130.963 22.04 131.955 22.04C132.987 22.04 133.947 22.296 134.835 22.808C135.731 23.312 136.451 24.052 136.995 25.028C137.547 25.996 137.823 27.184 137.823 28.592C137.823 30.04 137.555 31.26 137.019 32.252C136.483 33.244 135.771 33.996 134.883 34.508C133.995 35.012 133.019 35.264 131.955 35.264ZM124.779 35V16.244H127.947V35H124.779ZM146.7 35.252C145.356 35.252 144.172 34.972 143.148 34.412C142.124 33.844 141.32 33.06 140.736 32.06C140.16 31.06 139.872 29.916 139.872 28.628C139.872 27.332 140.16 26.192 140.736 25.208C141.32 24.216 142.124 23.44 143.148 22.88C144.172 22.32 145.356 22.04 146.7 22.04C148.044 22.04 149.228 22.32 150.252 22.88C151.276 23.44 152.076 24.216 152.652 25.208C153.236 26.192 153.528 27.332 153.528 28.628C153.528 29.916 153.236 31.06 152.652 32.06C152.076 33.06 151.276 33.844 150.252 34.412C149.228 34.972 148.044 35.252 146.7 35.252ZM146.7 32.672C147.428 32.672 148.064 32.504 148.608 32.168C149.152 31.832 149.576 31.364 149.88 30.764C150.184 30.156 150.336 29.444 150.336 28.628C150.336 27.812 150.184 27.108 149.88 26.516C149.576 25.916 149.152 25.452 148.608 25.124C148.064 24.796 147.428 24.632 146.7 24.632C145.98 24.632 145.344 24.796 144.792 25.124C144.248 25.452 143.824 25.916 143.52 26.516C143.216 27.108 143.064 27.812 143.064 28.628C143.064 29.444 143.216 30.156 143.52 30.764C143.824 31.364 144.248 31.832 144.792 32.168C145.344 32.504 145.98 32.672 146.7 32.672ZM159.495 28.052L159.471 29.492L154.275 22.256H157.731L161.643 27.932L159.747 27.92L163.587 22.256H166.971L161.991 29.084L161.907 27.764L167.043 35H163.587L159.615 29.336L161.751 29.144L157.467 35H154.083L159.495 28.052Z" fill="black"/>
</g>
<defs>
<clipPath id="clip0_677_69">
<rect width="191" height="45.9854" fill="white"/>
</clipPath>
</defs>
</svg>
